<?xml version="1.0" encoding="iso-8859-1"?>
<!-- Generator: Adobe Illustrator 19.0.0, SVG Export Plug-In . SVG Version: 6.00 Build 0)  -->
<svg version="1.1" id="Capa_1" xmlns="http://www.w3.org/2000/svg" xmlns:xlink="http://www.w3.org/1999/xlink" x="0px" y="0px"
	 viewBox="0 0 512 512" style="enable-background:new 0 0 512 512;" xml:space="preserve">
<g>
	<g>
		<path d="M136,180c-41.353,0-76,33.647-76,75c0,41.353,34.647,75,76,75c41.353,0,76-33.647,76-75C212,213.647,177.353,180,136,180z
			"/>
	</g>
</g>
<g>
	<g>
		<path d="M377,0c-74.443,0-135,60.557-135,135c0,23.218,5.933,45.879,17.197,65.977l-16.421,49.277
			c-1.743,5.2-0.498,10.913,3.223,14.941c3.818,4.129,9.52,5.66,14.634,4.351l55.708-13.916C335.062,265.049,355.906,270,377,270
			c74.443,0,135-60.557,135-135S451.443,0,377,0z M392,195c0,8.291-6.709,15-15,15c-8.291,0-15-6.709-15-15v-60
			c0-8.291,6.709-15,15-15c8.291,0,15,6.709,15,15V195z M377,105c-8.284,0-15-6.716-15-15s6.716-15,15-15s15,6.716,15,15
			S385.284,105,377,105z"/>
	</g>
</g>
<g>
	<g>
		<path d="M214.71,324.968C195.477,346.311,166.919,360,136,360s-59.477-13.689-78.71-35.032C22.747,349.444,0,389.535,0,435v62
			c0,8.291,6.709,15,15,15h242c8.291,0,15-6.709,15-15v-62C272,389.535,249.253,349.444,214.71,324.968z"/>
	</g>
</g>
<g>
</g>
<g>
</g>
<g>
</g>
<g>
</g>
<g>
</g>
<g>
</g>
<g>
</g>
<g>
</g>
<g>
</g>
<g>
</g>
<g>
</g>
<g>
</g>
<g>
</g>
<g>
</g>
<g>
</g>
</svg>
