<?xml version="1.0" encoding="iso-8859-1"?>
<!-- Generator: Adobe Illustrator 19.0.0, SVG Export Plug-In . SVG Version: 6.00 Build 0)  -->
<svg version="1.1" id="Capa_1" xmlns="http://www.w3.org/2000/svg" xmlns:xlink="http://www.w3.org/1999/xlink" x="0px" y="0px"
	 viewBox="0 0 512 512" style="enable-background:new 0 0 512 512;" xml:space="preserve">
<g>
	<g>
		<path d="M502,365.998h-15.998V116c0-16.543-13.459-30-30.002-30H56c-16.543,0-30,13.457-30,30v249.998H10c-5.523,0-10,4.479-10,10
			v20.004C0,412.543,13.457,426,29.996,426H482c16.543,0,30-13.457,30-29.998v-20.004C512,370.477,507.522,365.998,502,365.998z
			 M46,116c0-5.514,4.486-10,10-10h400c5.514,0,10.002,4.486,10.002,10v249.998H46V116z M492,396.002c0,5.514-4.486,9.998-10,9.998
			H29.996c-5.512,0-9.996-4.484-9.996-9.998v-10.004h16h440.002H492V396.002z"/>
	</g>
</g>
<g>
	<g>
		<path d="M455.998,125.891c-0.006-0.221-0.02-0.44-0.037-0.661c-0.008-0.113-0.012-0.229-0.025-0.34
			c-0.021-0.203-0.057-0.404-0.092-0.607c-0.023-0.129-0.041-0.26-0.068-0.387c-0.037-0.168-0.084-0.334-0.129-0.502
			c-0.043-0.158-0.082-0.316-0.133-0.471c-0.043-0.133-0.096-0.264-0.145-0.396c-0.068-0.183-0.135-0.365-0.213-0.543
			c-0.049-0.113-0.108-0.223-0.162-0.336c-0.09-0.188-0.184-0.375-0.285-0.559c-0.02-0.033-0.035-0.068-0.055-0.104
			c-0.047-0.082-0.103-0.156-0.154-0.238c-0.102-0.162-0.203-0.326-0.313-0.482c-0.094-0.133-0.191-0.26-0.289-0.387
			c-0.096-0.123-0.193-0.248-0.295-0.367c-0.121-0.141-0.246-0.275-0.373-0.41c-0.092-0.096-0.184-0.191-0.279-0.285
			c-0.141-0.135-0.283-0.264-0.43-0.391c-0.1-0.084-0.197-0.168-0.299-0.248c-0.146-0.117-0.297-0.228-0.449-0.336
			c-0.117-0.082-0.234-0.162-0.354-0.24c-0.143-0.092-0.285-0.18-0.432-0.264c-0.143-0.08-0.285-0.16-0.43-0.234
			c-0.133-0.066-0.266-0.131-0.4-0.193c-0.164-0.074-0.33-0.146-0.5-0.213c-0.127-0.049-0.254-0.096-0.383-0.139
			c-0.176-0.063-0.353-0.119-0.535-0.172c-0.135-0.039-0.271-0.072-0.408-0.105c-0.172-0.041-0.344-0.08-0.52-0.111
			c-0.162-0.031-0.326-0.053-0.49-0.074c-0.15-0.021-0.301-0.041-0.455-0.055c-0.201-0.018-0.402-0.025-0.603-0.029
			c-0.088-0.004-0.174-0.014-0.264-0.014H66c-0.088,0-0.174,0.01-0.262,0.014c-0.203,0.004-0.406,0.012-0.609,0.029
			c-0.15,0.014-0.297,0.033-0.445,0.053c-0.168,0.023-0.336,0.047-0.502,0.076c-0.17,0.031-0.336,0.07-0.502,0.109
			c-0.145,0.035-0.289,0.07-0.432,0.111c-0.172,0.049-0.342,0.104-0.51,0.162c-0.139,0.047-0.275,0.096-0.41,0.15
			c-0.16,0.063-0.316,0.131-0.471,0.201c-0.145,0.066-0.289,0.135-0.432,0.207c-0.135,0.07-0.268,0.143-0.398,0.219
			c-0.156,0.088-0.311,0.182-0.463,0.281c-0.109,0.07-0.217,0.145-0.322,0.219c-0.162,0.115-0.322,0.232-0.477,0.355
			c-0.094,0.076-0.184,0.152-0.273,0.229c-0.154,0.133-0.305,0.27-0.451,0.41c-0.09,0.088-0.176,0.178-0.262,0.268
			c-0.133,0.139-0.264,0.279-0.389,0.426c-0.098,0.115-0.189,0.234-0.281,0.354c-0.102,0.129-0.203,0.26-0.299,0.396
			c-0.109,0.156-0.209,0.316-0.309,0.479c-0.051,0.082-0.107,0.156-0.156,0.24c-0.02,0.035-0.035,0.07-0.055,0.104
			c-0.102,0.184-0.193,0.371-0.285,0.559c-0.055,0.113-0.113,0.223-0.162,0.336c-0.078,0.178-0.145,0.359-0.213,0.543
			c-0.049,0.133-0.102,0.264-0.145,0.396c-0.051,0.154-0.09,0.313-0.133,0.471c-0.045,0.168-0.092,0.334-0.129,0.502
			c-0.027,0.129-0.045,0.26-0.068,0.389c-0.035,0.201-0.07,0.402-0.092,0.604c-0.012,0.113-0.018,0.229-0.025,0.344
			c-0.018,0.219-0.031,0.438-0.033,0.658c-0.002,0.035-0.006,0.07-0.006,0.107v220.004c0,0.035,0.004,0.07,0.006,0.107
			c0.002,0.219,0.016,0.438,0.033,0.658c0.008,0.113,0.014,0.228,0.025,0.342c0.021,0.203,0.057,0.402,0.092,0.605
			c0.023,0.129,0.041,0.26,0.068,0.387c0.037,0.17,0.084,0.336,0.129,0.502c0.043,0.158,0.082,0.316,0.133,0.471
			c0.043,0.135,0.096,0.266,0.145,0.398c0.068,0.182,0.135,0.363,0.213,0.541c0.049,0.113,0.107,0.225,0.162,0.336
			c0.092,0.189,0.184,0.377,0.285,0.559c0.02,0.035,0.035,0.07,0.055,0.103c0.029,0.053,0.068,0.098,0.1,0.15
			c0.17,0.277,0.35,0.547,0.545,0.809c0.066,0.09,0.131,0.182,0.201,0.268c0.238,0.299,0.49,0.586,0.76,0.855
			c0.076,0.074,0.158,0.141,0.236,0.213c0.209,0.195,0.426,0.383,0.65,0.561c0.109,0.086,0.221,0.168,0.334,0.25
			c0.234,0.168,0.476,0.324,0.725,0.473c0.084,0.049,0.164,0.104,0.248,0.15c0.342,0.189,0.693,0.361,1.057,0.51
			c0.057,0.023,0.113,0.039,0.168,0.063c0.311,0.121,0.629,0.225,0.953,0.316c0.102,0.027,0.203,0.053,0.305,0.078
			c0.287,0.07,0.578,0.125,0.875,0.17c0.109,0.017,0.217,0.037,0.326,0.051c0.355,0.041,0.713,0.066,1.078,0.068
			c0.033,0.002,0.068,0.008,0.104,0.008c0.01,0,0.019-0.002,0.029-0.002h379.922c0.01,0,0.02,0.002,0.029,0.002
			c0.035,0,0.07-0.006,0.104-0.008c0.365-0.002,0.723-0.027,1.078-0.068c0.109-0.014,0.219-0.033,0.328-0.051
			c0.295-0.045,0.586-0.1,0.873-0.17c0.102-0.025,0.203-0.051,0.307-0.08c0.322-0.09,0.639-0.193,0.949-0.315
			c0.057-0.022,0.113-0.039,0.17-0.063c0.363-0.15,0.715-0.318,1.055-0.508c0.088-0.049,0.17-0.105,0.256-0.156
			c0.246-0.146,0.484-0.301,0.715-0.467c0.115-0.082,0.229-0.166,0.342-0.254c0.221-0.176,0.434-0.359,0.639-0.551
			c0.082-0.076,0.166-0.145,0.246-0.223c0.27-0.268,0.52-0.555,0.758-0.852c0.07-0.088,0.135-0.182,0.203-0.273
			c0.193-0.258,0.375-0.527,0.543-0.805c0.031-0.053,0.07-0.098,0.1-0.15c0.02-0.033,0.035-0.068,0.055-0.103
			c0.101-0.182,0.195-0.369,0.285-0.559c0.055-0.111,0.113-0.223,0.162-0.336c0.078-0.178,0.145-0.359,0.213-0.541
			c0.049-0.133,0.102-0.264,0.145-0.398c0.051-0.154,0.09-0.313,0.133-0.471c0.045-0.166,0.092-0.332,0.129-0.502
			c0.027-0.127,0.045-0.258,0.068-0.387c0.035-0.201,0.07-0.402,0.092-0.605c0.014-0.113,0.018-0.227,0.025-0.342
			c0.018-0.219,0.031-0.44,0.035-0.658c0-0.037,0.004-0.072,0.004-0.107V125.998C456.002,125.961,455.998,125.926,455.998,125.891z
			 M408.77,135.998L292.195,203.49c-2.807-17.451-17.967-30.824-36.195-30.824c-18.23,0-33.391,13.373-36.197,30.824L103.23,135.998
			H408.77z M282.666,246H286v33.332h-59.998V246h3.33H282.666z M239.332,226v-16.668c0-9.189,7.477-16.666,16.668-16.666
			c9.19,0,16.666,7.477,16.666,16.666V226H239.332z M76,143.342l143.301,82.969c-7.566,1.477-13.299,8.148-13.299,16.143v10.938
			L76,328.656V143.342z M103.23,336.002l102.772-59.5v6.377c0,9.072,7.381,16.453,16.453,16.453h67.092
			c9.072,0,16.453-7.381,16.453-16.453v-6.377l102.77,59.5H103.23z M436,328.657l-130-75.266v-10.938
			c0-7.994-5.734-14.668-13.303-16.143L436,143.342V328.657z"/>
	</g>
</g>
<g>
	<g>
		<path d="M105.998,190.5c-5.523,0-10,4.477-10,10v0.477c0,5.521,4.477,10,10,10c5.521,0,10-4.479,10-10V200.5
			C115.998,194.977,111.52,190.5,105.998,190.5z"/>
	</g>
</g>
<g>
	<g>
		<path d="M105.998,220.059c-5.523,0-10,4.479-10,10v41.439c0,5.522,4.477,10,10,10c5.521,0,10-4.478,10-10v-41.439
			C115.998,224.537,111.52,220.059,105.998,220.059z"/>
	</g>
</g>
<g>
	<g>
		<path d="M406.002,261.022c-5.524,0-10,4.478-10,10v0.476c0,5.522,4.476,10,10,10c5.521,0,10-4.478,10-10v-0.476
			C416.002,265.5,411.523,261.022,406.002,261.022z"/>
	</g>
</g>
<g>
	<g>
		<path d="M406.002,190.5c-5.524,0-10,4.477-10,10v41.436c0,5.523,4.476,10,10,10c5.521,0,10-4.477,10-10V200.5
			C416.002,194.977,411.523,190.5,406.002,190.5z"/>
	</g>
</g>
<g>
</g>
<g>
</g>
<g>
</g>
<g>
</g>
<g>
</g>
<g>
</g>
<g>
</g>
<g>
</g>
<g>
</g>
<g>
</g>
<g>
</g>
<g>
</g>
<g>
</g>
<g>
</g>
<g>
</g>
</svg>
