<?xml version="1.0" encoding="iso-8859-1"?>
<!-- Generator: Adobe Illustrator 19.0.0, SVG Export Plug-In . SVG Version: 6.00 Build 0)  -->
<svg version="1.1" id="Capa_1" xmlns="http://www.w3.org/2000/svg" xmlns:xlink="http://www.w3.org/1999/xlink" x="0px" y="0px"
	 viewBox="0 0 512 512" style="enable-background:new 0 0 512 512;" xml:space="preserve">
<g>
	<g>
		<path d="M431,126.946V10H81v116.946L0,177.697V502h512V177.697L431,126.946z M111,40h290v217.594L256,397.179L111,257.594V40z
			 M482,472H30l0.001-250.738L256,438.821l226-217.56V472z"/>
	</g>
</g>
<g>
	<g>
		<path d="M360.5,70h-30v30h-27.163c-11.835-12.313-28.45-20-46.837-20c-18.387,0-35.002,7.687-46.837,20H181.5V70h-30v60h41.766
			c-1.143,4.819-1.766,9.837-1.766,15v15h-40v30h40v15c0,5.163,0.623,10.181,1.766,15H151.5v60h30v-30h28.163
			c11.835,12.313,28.45,20,46.837,20s35.002-7.687,46.837-20H330.5v30h30v-60h-40.766c1.143-4.819,1.766-9.837,1.766-15v-15h39v-30
			h-39v-15c0-5.163-0.623-10.181-1.766-15H360.5V70z"/>
	</g>
</g>
<g>
</g>
<g>
</g>
<g>
</g>
<g>
</g>
<g>
</g>
<g>
</g>
<g>
</g>
<g>
</g>
<g>
</g>
<g>
</g>
<g>
</g>
<g>
</g>
<g>
</g>
<g>
</g>
<g>
</g>
</svg>
